<svg width="41" height="24" viewBox="0 0 41 24" fill="none" xmlns="http://www.w3.org/2000/svg">
<path d="M36.32 1.12C36.8747 1.12 37.3547 1.32267 37.76 1.728C38.1653 2.13333 38.368 2.61333 38.368 3.168V14.24C38.368 14.9013 38.3147 15.5413 38.208 16.16C38.1013 16.7573 37.952 17.344 37.76 17.92C37.3333 19.1147 36.7253 20.16 35.936 21.056C35.0613 22.016 34.0267 22.7413 32.832 23.232C31.6587 23.7227 30.3467 23.968 28.896 23.968H27.744C24.7787 23.968 22.4213 22.9973 20.672 21.056C20.608 20.9707 20.544 20.896 20.48 20.832C20.416 20.768 20.352 20.6933 20.288 20.608C20.224 20.6933 20.16 20.768 20.096 20.832C20.032 20.896 19.968 20.9707 19.904 21.056C19.0507 22.016 18.0267 22.7413 16.832 23.232C15.6373 23.7227 14.3147 23.968 12.864 23.968H11.712C10.24 23.968 8.90667 23.7227 7.712 23.232C6.53867 22.7413 5.52533 22.016 4.672 21.056C3.86133 20.1813 3.24267 19.136 2.816 17.92C2.432 16.768 2.24 15.5413 2.24 14.24V3.168C2.24 2.61333 2.432 2.13333 2.816 1.728C3.22133 1.32267 3.712 1.12 4.288 1.12C4.84267 1.12 5.312 1.32267 5.696 1.728C6.10133 2.13333 6.304 2.61333 6.304 3.168V14.24C6.304 14.5813 6.34667 15.072 6.432 15.712C6.53867 16.3307 6.77333 16.96 7.136 17.6C7.49867 18.2187 8.032 18.7627 8.736 19.232C9.46133 19.68 10.4533 19.904 11.712 19.904H12.864C14.1227 19.904 15.104 19.68 15.808 19.232C16.5333 18.7627 17.0773 18.2187 17.44 17.6C17.8027 16.96 18.0267 16.3307 18.112 15.712C18.2187 15.072 18.272 14.5813 18.272 14.24V3.168C18.272 2.61333 18.464 2.13333 18.848 1.728C19.2533 1.32267 19.7333 1.12 20.288 1.12C20.8427 1.12 21.3227 1.32267 21.728 1.728C22.1333 2.13333 22.336 2.61333 22.336 3.168V14.24C22.336 14.5813 22.3787 15.072 22.464 15.712C22.5707 16.3307 22.8053 16.96 23.168 17.6C23.5307 18.2187 24.064 18.7627 24.768 19.232C25.4933 19.68 26.4853 19.904 27.744 19.904H28.896C30.1333 19.904 31.1147 19.68 31.84 19.232C32.5653 18.7627 33.0987 18.2187 33.44 17.6C33.8027 16.96 34.0267 16.3307 34.112 15.712C34.2187 15.072 34.272 14.5813 34.272 14.24V3.168C34.272 2.61333 34.4747 2.13333 34.88 1.728C35.2853 1.32267 35.7653 1.12 36.32 1.12Z" fill="#FF3030">
</svg>
