<svg width="41" height="24" viewBox="0 0 41 24" fill="none" xmlns="http://www.w3.org/2000/svg">
<g clip-path="url(#clip0_83_1048)">
<g clip-path="url(#clip1_83_1048)">
<path d="M36.3202 1.12012C36.8749 1.12012 37.3549 1.32279 37.7602 1.72812C38.1655 2.13345 38.3682 2.61345 38.3682 3.16812V14.2401C38.3682 14.9014 38.3149 15.5414 38.2082 16.1601C38.1015 16.7574 37.9522 17.3441 37.7602 17.9201C37.3335 19.1148 36.7255 20.1601 35.9362 21.0561C35.0615 22.0161 34.0269 22.7414 32.8322 23.2321C31.6589 23.7228 30.3469 23.9681 28.8962 23.9681H27.7442C24.7789 23.9681 22.4215 22.9974 20.6722 21.0561C20.6082 20.9708 20.5442 20.8961 20.4802 20.8321C20.4162 20.7681 20.3522 20.6934 20.2882 20.6081C20.2242 20.6934 20.1602 20.7681 20.0962 20.8321C20.0322 20.8961 19.9682 20.9708 19.9042 21.0561C19.0509 22.0161 18.0269 22.7414 16.8322 23.2321C15.6375 23.7228 14.3149 23.9681 12.8642 23.9681H11.7122C10.2402 23.9681 8.9069 23.7228 7.71223 23.2321C6.5389 22.7414 5.52556 22.0161 4.67223 21.0561C3.86156 20.1814 3.2429 19.1361 2.81623 17.9201C2.43223 16.7681 2.24023 15.5414 2.24023 14.2401V3.16812C2.24023 2.61345 2.43223 2.13345 2.81623 1.72812C3.22156 1.32279 3.71223 1.12012 4.28823 1.12012C4.8429 1.12012 5.31223 1.32279 5.69623 1.72812C6.10156 2.13345 6.30423 2.61345 6.30423 3.16812V14.2401C6.30423 14.5814 6.3469 15.0721 6.43223 15.7121C6.5389 16.3308 6.77356 16.9601 7.13623 17.6001C7.4989 18.2188 8.03223 18.7628 8.73623 19.2321C9.46156 19.6801 10.4535 19.9041 11.7122 19.9041H12.8642C14.1229 19.9041 15.1042 19.6801 15.8082 19.2321C16.5335 18.7628 17.0775 18.2188 17.4402 17.6001C17.8029 16.9601 18.0269 16.3308 18.1122 15.7121C18.2189 15.0721 18.2722 14.5814 18.2722 14.2401V3.16812C18.2722 2.61345 18.4642 2.13345 18.8482 1.72812C19.2535 1.32279 19.7335 1.12012 20.2882 1.12012C20.8429 1.12012 21.3229 1.32279 21.7282 1.72812C22.1335 2.13345 22.3362 2.61345 22.3362 3.16812V14.2401C22.3362 14.5814 22.3789 15.0721 22.4642 15.7121C22.5709 16.3308 22.8055 16.9601 23.1682 17.6001C23.5309 18.2188 24.0642 18.7628 24.7682 19.2321C25.4935 19.6801 26.4855 19.9041 27.7442 19.9041H28.8962C30.1335 19.9041 31.1149 19.6801 31.8402 19.2321C32.5655 18.7628 33.0989 18.2188 33.4402 17.6001C33.8029 16.9601 34.0269 16.3308 34.1122 15.7121C34.2189 15.0721 34.2722 14.5814 34.2722 14.2401V3.16812C34.2722 2.61345 34.4749 2.13345 34.8802 1.72812C35.2855 1.32279 35.7655 1.12012 36.3202 1.12012ZM52.033 5.18412V19.9041H55.745C56.321 19.9041 56.801 20.1068 57.185 20.5121C57.5903 20.8961 57.793 21.3654 57.793 21.9201C57.793 22.4961 57.5903 22.9868 57.185 23.3921C56.801 23.7761 56.321 23.9681 55.745 23.9681H44.257C43.7023 23.9681 43.2223 23.7761 42.817 23.3921C42.4116 22.9868 42.209 22.4961 42.209 21.9201C42.209 21.3654 42.4116 20.8961 42.817 20.5121C43.2223 20.1068 43.7023 19.9041 44.257 19.9041H47.969V5.18412H44.257C43.7023 5.18412 43.2223 4.99212 42.817 4.60812C42.4116 4.20279 42.209 3.72279 42.209 3.16812C42.209 2.61345 42.4116 2.13345 42.817 1.72812C43.2223 1.32279 43.7023 1.12012 44.257 1.12012H55.745C56.321 1.12012 56.801 1.32279 57.185 1.72812C57.5903 2.13345 57.793 2.61345 57.793 3.16812C57.793 3.72279 57.5903 4.20279 57.185 4.60812C56.801 4.99212 56.321 5.18412 55.745 5.18412H52.033ZM80.9105 19.9041C81.4651 19.9041 81.9451 20.1068 82.3505 20.5121C82.7558 20.8961 82.9585 21.3654 82.9585 21.9201C82.9585 22.4961 82.7558 22.9868 82.3505 23.3921C81.9451 23.7761 81.4651 23.9681 80.9105 23.9681H70.8945C69.6571 23.9681 68.4731 23.7441 67.3425 23.2961C66.2331 22.8268 65.2305 22.1441 64.3345 21.2481C63.4598 20.3734 62.7878 19.3814 62.3185 18.2721C61.8705 17.1414 61.6465 15.9574 61.6465 14.7201V3.16812C61.6465 2.61345 61.8385 2.13345 62.2225 1.72812C62.6278 1.32279 63.1078 1.12012 63.6625 1.12012C64.2171 1.12012 64.6971 1.32279 65.1025 1.72812C65.5078 2.13345 65.7105 2.61345 65.7105 3.16812V14.7201C65.7105 15.4241 65.8491 16.0961 66.1265 16.7361C66.4038 17.3548 66.7771 17.8988 67.2465 18.3681C67.7158 18.8374 68.2598 19.2108 68.8785 19.4881C69.5185 19.7654 70.1905 19.9041 70.8945 19.9041H80.9105ZM104.129 19.9041C104.684 19.9041 105.164 20.1068 105.569 20.5121C105.974 20.8961 106.177 21.3654 106.177 21.9201C106.177 22.4961 105.974 22.9868 105.569 23.3921C105.164 23.7761 104.684 23.9681 104.129 23.9681H94.1132C92.8759 23.9681 91.6919 23.7441 90.5612 23.2961C89.4519 22.8268 88.4492 22.1441 87.5532 21.2481C86.6785 20.3734 86.0065 19.3814 85.5372 18.2721C85.0892 17.1414 84.8652 15.9574 84.8652 14.7201V3.16812C84.8652 2.61345 85.0572 2.13345 85.4412 1.72812C85.8465 1.32279 86.3265 1.12012 86.8812 1.12012C87.4359 1.12012 87.9159 1.32279 88.3212 1.72812C88.7265 2.13345 88.9292 2.61345 88.9292 3.16812V14.7201C88.9292 15.4241 89.0679 16.0961 89.3452 16.7361C89.6225 17.3548 89.9959 17.8988 90.4652 18.3681C90.9345 18.8374 91.4785 19.2108 92.0972 19.4881C92.7372 19.7654 93.4092 19.9041 94.1132 19.9041H104.129Z" fill="#FF3030"/>
</g>
</g>
<defs>
<clipPath id="clip0_83_1048">
<rect width="41" height="24" fill="white"/>
</clipPath>
<clipPath id="clip1_83_1048">
<rect width="41" height="24" fill="white"/>
</clipPath>
</defs>
</svg>
