<svg width="156" height="24" viewBox="0 0 156 24" fill="none" xmlns="http://www.w3.org/2000/svg">
<path d="M36.32 1.12C36.8747 1.12 37.3547 1.32267 37.76 1.728C38.1653 2.13333 38.368 2.61333 38.368 3.168V14.24C38.368 14.9013 38.3147 15.5413 38.208 16.16C38.1013 16.7573 37.952 17.344 37.76 17.92C37.3333 19.1147 36.7253 20.16 35.936 21.056C35.0613 22.016 34.0267 22.7413 32.832 23.232C31.6587 23.7227 30.3467 23.968 28.896 23.968H27.744C24.7787 23.968 22.4213 22.9973 20.672 21.056C20.608 20.9707 20.544 20.896 20.48 20.832C20.416 20.768 20.352 20.6933 20.288 20.608C20.224 20.6933 20.16 20.768 20.096 20.832C20.032 20.896 19.968 20.9707 19.904 21.056C19.0507 22.016 18.0267 22.7413 16.832 23.232C15.6373 23.7227 14.3147 23.968 12.864 23.968H11.712C10.24 23.968 8.90667 23.7227 7.712 23.232C6.53867 22.7413 5.52533 22.016 4.672 21.056C3.86133 20.1813 3.24267 19.136 2.816 17.92C2.432 16.768 2.24 15.5413 2.24 14.24V3.168C2.24 2.61333 2.432 2.13333 2.816 1.728C3.22133 1.32267 3.712 1.12 4.288 1.12C4.84267 1.12 5.312 1.32267 5.696 1.728C6.10133 2.13333 6.304 2.61333 6.304 3.168V14.24C6.304 14.5813 6.34667 15.072 6.432 15.712C6.53867 16.3307 6.77333 16.96 7.136 17.6C7.49867 18.2187 8.032 18.7627 8.736 19.232C9.46133 19.68 10.4533 19.904 11.712 19.904H12.864C14.1227 19.904 15.104 19.68 15.808 19.232C16.5333 18.7627 17.0773 18.2187 17.44 17.6C17.8027 16.96 18.0267 16.3307 18.112 15.712C18.2187 15.072 18.272 14.5813 18.272 14.24V3.168C18.272 2.61333 18.464 2.13333 18.848 1.728C19.2533 1.32267 19.7333 1.12 20.288 1.12C20.8427 1.12 21.3227 1.32267 21.728 1.728C22.1333 2.13333 22.336 2.61333 22.336 3.168V14.24C22.336 14.5813 22.3787 15.072 22.464 15.712C22.5707 16.3307 22.8053 16.96 23.168 17.6C23.5307 18.2187 24.064 18.7627 24.768 19.232C25.4933 19.68 26.4853 19.904 27.744 19.904H28.896C30.1333 19.904 31.1147 19.68 31.84 19.232C32.5653 18.7627 33.0987 18.2187 33.44 17.6C33.8027 16.96 34.0267 16.3307 34.112 15.712C34.2187 15.072 34.272 14.5813 34.272 14.24V3.168C34.272 2.61333 34.4747 2.13333 34.88 1.728C35.2853 1.32267 35.7653 1.12 36.32 1.12ZM52.0328 5.184V19.904H55.7448C56.3208 19.904 56.8008 20.1067 57.1848 20.512C57.5901 20.896 57.7928 21.3653 57.7928 21.92C57.7928 22.496 57.5901 22.9867 57.1848 23.392C56.8008 23.776 56.3208 23.968 55.7448 23.968H44.2568C43.7021 23.968 43.2221 23.776 42.8168 23.392C42.4114 22.9867 42.2088 22.496 42.2088 21.92C42.2088 21.3653 42.4114 20.896 42.8168 20.512C43.2221 20.1067 43.7021 19.904 44.2568 19.904H47.9688V5.184H44.2568C43.7021 5.184 43.2221 4.992 42.8168 4.608C42.4114 4.20267 42.2088 3.72267 42.2088 3.168C42.2088 2.61333 42.4114 2.13333 42.8168 1.728C43.2221 1.32267 43.7021 1.12 44.2568 1.12H55.7448C56.3208 1.12 56.8008 1.32267 57.1848 1.728C57.5901 2.13333 57.7928 2.61333 57.7928 3.168C57.7928 3.72267 57.5901 4.20267 57.1848 4.608C56.8008 4.992 56.3208 5.184 55.7448 5.184H52.0328ZM80.9103 19.904C81.4649 19.904 81.9449 20.1067 82.3503 20.512C82.7556 20.896 82.9583 21.3653 82.9583 21.92C82.9583 22.496 82.7556 22.9867 82.3503 23.392C81.9449 23.776 81.4649 23.968 80.9103 23.968H70.8943C69.6569 23.968 68.4729 23.744 67.3423 23.296C66.2329 22.8267 65.2303 22.144 64.3343 21.248C63.4596 20.3733 62.7876 19.3813 62.3183 18.272C61.8703 17.1413 61.6463 15.9573 61.6463 14.72V3.168C61.6463 2.61333 61.8383 2.13333 62.2223 1.728C62.6276 1.32267 63.1076 1.12 63.6623 1.12C64.2169 1.12 64.6969 1.32267 65.1023 1.728C65.5076 2.13333 65.7103 2.61333 65.7103 3.168V14.72C65.7103 15.424 65.8489 16.096 66.1263 16.736C66.4036 17.3547 66.7769 17.8987 67.2463 18.368C67.7156 18.8373 68.2596 19.2107 68.8783 19.488C69.5183 19.7653 70.1903 19.904 70.8943 19.904H80.9103ZM104.129 19.904C104.684 19.904 105.164 20.1067 105.569 20.512C105.974 20.896 106.177 21.3653 106.177 21.92C106.177 22.496 105.974 22.9867 105.569 23.392C105.164 23.776 104.684 23.968 104.129 23.968H94.113C92.8757 23.968 91.6917 23.744 90.561 23.296C89.4517 22.8267 88.449 22.144 87.553 21.248C86.6783 20.3733 86.0063 19.3813 85.537 18.272C85.089 17.1413 84.865 15.9573 84.865 14.72V3.168C84.865 2.61333 85.057 2.13333 85.441 1.728C85.8463 1.32267 86.3263 1.12 86.881 1.12C87.4357 1.12 87.9157 1.32267 88.321 1.728C88.7263 2.13333 88.929 2.61333 88.929 3.168V14.72C88.929 15.424 89.0677 16.096 89.345 16.736C89.6223 17.3547 89.9957 17.8987 90.465 18.368C90.9343 18.8373 91.4783 19.2107 92.097 19.488C92.737 19.7653 93.409 19.904 94.113 19.904H104.129Z" fill="#FF3030"/>
<rect x="109" y="21" width="47" height="3" rx="1.5" fill="#FF3030"/>
<path d="M121.22 0.699999C121.793 0.699999 122.333 0.813333 122.84 1.04C123.36 1.25333 123.807 1.55333 124.18 1.94C124.567 2.31333 124.867 2.76 125.08 3.28C125.307 3.78667 125.42 4.32667 125.42 4.9C125.42 5.47333 125.313 6.01333 125.1 6.52C124.887 7.01333 124.593 7.45333 124.22 7.84C124.593 8.21333 124.887 8.65333 125.1 9.16C125.313 9.65333 125.42 10.1867 125.42 10.76V10.78C125.42 11.3667 125.307 11.9133 125.08 12.42C124.867 12.9267 124.567 13.3733 124.18 13.76C123.807 14.1333 123.36 14.4333 122.84 14.66C122.333 14.8733 121.793 14.98 121.22 14.98H111.68C111.333 14.98 111.033 14.86 110.78 14.62C110.527 14.3667 110.4 14.06 110.4 13.7V7.84C110.4 7.48 110.527 7.18 110.78 6.94C111.033 6.68667 111.333 6.56 111.68 6.56H121.22C121.687 6.56 122.08 6.4 122.4 6.08C122.72 5.76 122.88 5.36667 122.88 4.9C122.88 4.44667 122.72 4.06 122.4 3.74C122.08 3.40667 121.687 3.24 121.22 3.24H111.68C111.333 3.24 111.033 3.12 110.78 2.88C110.527 2.62667 110.4 2.32667 110.4 1.98C110.4 1.63333 110.527 1.33333 110.78 1.08C111.033 0.826666 111.333 0.699999 111.68 0.699999H121.22ZM122.88 10.76C122.88 10.2933 122.72 9.9 122.4 9.58C122.08 9.26 121.687 9.1 121.22 9.1H112.94V12.44H121.22C121.687 12.44 122.08 12.28 122.4 11.96C122.72 11.64 122.88 11.2467 122.88 10.78V10.76ZM133.552 3.24V12.44H135.872C136.232 12.44 136.532 12.5667 136.772 12.82C137.025 13.06 137.152 13.3533 137.152 13.7C137.152 14.06 137.025 14.3667 136.772 14.62C136.532 14.86 136.232 14.98 135.872 14.98H128.692C128.345 14.98 128.045 14.86 127.792 14.62C127.538 14.3667 127.412 14.06 127.412 13.7C127.412 13.3533 127.538 13.06 127.792 12.82C128.045 12.5667 128.345 12.44 128.692 12.44H131.012V3.24H128.692C128.345 3.24 128.045 3.12 127.792 2.88C127.538 2.62667 127.412 2.32667 127.412 1.98C127.412 1.63333 127.538 1.33333 127.792 1.08C128.045 0.826666 128.345 0.699999 128.692 0.699999H135.872C136.232 0.699999 136.532 0.826666 136.772 1.08C137.025 1.33333 137.152 1.63333 137.152 1.98C137.152 2.32667 137.025 2.62667 136.772 2.88C136.532 3.12 136.232 3.24 135.872 3.24H133.552ZM152.5 2.8C153.18 3.48 153.687 4.23333 154.02 5.06C154.407 5.95333 154.6 6.88 154.6 7.84C154.6 8.8 154.407 9.72667 154.02 10.62C153.687 11.46 153.18 12.22 152.5 12.9C151.82 13.5533 151.067 14.06 150.24 14.42C149.373 14.7933 148.447 14.98 147.46 14.98H140.84C140.493 14.98 140.193 14.86 139.94 14.62C139.7 14.3667 139.58 14.06 139.58 13.7V9.34C139.58 8.99333 139.7 8.7 139.94 8.46C140.193 8.20667 140.493 8.08 140.84 8.08C141.187 8.08 141.487 8.20667 141.74 8.46C141.993 8.7 142.12 8.99333 142.12 9.34V12.44H147.46C147.593 12.44 147.727 12.4333 147.86 12.42C147.993 12.4067 148.127 12.3867 148.26 12.36L139.88 2.82C139.72 2.63333 139.62 2.42 139.58 2.18C139.54 1.92667 139.573 1.68667 139.68 1.46C139.787 1.23333 139.94 1.05333 140.14 0.919999C140.353 0.773333 140.587 0.699999 140.84 0.699999H147.46C148.407 0.699999 149.333 0.886666 150.24 1.26C151.08 1.62 151.833 2.13333 152.5 2.8ZM150.6 11.2C151.053 10.7733 151.407 10.2733 151.66 9.7C151.913 9.12667 152.04 8.50667 152.04 7.84C152.04 7.21333 151.92 6.62 151.68 6.06C151.44 5.5 151.113 5.01333 150.7 4.6C150.287 4.17333 149.8 3.84 149.24 3.6C148.68 3.36 148.087 3.24 147.46 3.24H143.64L150.6 11.2Z" fill="#FF3030"/>
</svg>
