<?xml version="1.0" encoding="UTF-8" standalone="no"?>
<!DOCTYPE svg PUBLIC "-//W3C//DTD SVG 1.1//EN" "http://www.w3.org/Graphics/SVG/1.1/DTD/svg11.dtd">
<svg xmlns="http://www.w3.org/2000/svg" version="1.1" viewBox="0.00 0.00 512.00 512.00">
<path fill="#000000" d="
  M 248.52 0.00
  L 261.51 0.00
  Q 347.06 2.41 413.01 53.70
  C 420.99 59.91 415.50 73.09 405.25 71.36
  Q 402.67 70.93 399.19 68.31
  Q 392.09 62.99 384.66 58.13
  C 305.73 6.50 201.68 7.38 123.83 60.60
  C -3.97 147.96 -15.48 329.39 99.13 432.41
  A 0.26 0.25 -62.7 0 0 99.55 432.27
  C 111.36 378.67 149.36 334.69 200.75 315.81
  C 251.41 297.19 310.26 305.56 352.86 338.63
  Q 399.33 374.69 412.47 432.23
  Q 412.57 432.64 412.88 432.36
  C 497.59 357.13 515.98 233.78 459.51 136.30
  Q 456.89 131.78 456.58 129.90
  C 455.16 121.09 465.60 114.97 472.52 120.48
  Q 474.22 121.83 476.75 126.18
  Q 509.77 182.91 512.00 249.09
  L 512.00 263.54
  C 509.61 332.61 479.97 398.10 429.67 444.16
  Q 359.74 508.18 263.25 512.00
  L 248.65 512.00
  C 174.44 509.48 105.21 475.75 58.64 419.12
  Q 3.50 352.08 0.00 263.70
  L 0.00 248.15
  C 2.82 180.66 29.39 118.73 77.82 72.18
  Q 148.46 4.28 248.52 0.00
  Z
  M 242.61 326.63
  C 178.49 332.66 126.06 381.88 117.39 446.53
  A 0.95 0.94 -68.9 0 0 117.79 447.44
  Q 188.79 497.62 275.30 491.18
  C 318.32 487.98 359.44 472.48 394.35 447.26
  A 0.79 0.78 -22.2 0 0 394.67 446.51
  C 383.99 371.94 317.77 319.57 242.61 326.63
  Z"
>
<circle fill="#000000" cx="440.00" cy="92.00" r="9.97">
<path fill="#000000" d="
  M 345.97 196.00
  A 89.97 89.97 0.0 0 1 256.00 285.97
  A 89.97 89.97 0.0 0 1 166.03 196.00
  A 89.97 89.97 0.0 0 1 256.00 106.03
  A 89.97 89.97 0.0 0 1 345.97 196.00
  Z
  M 325.98 195.99
  A 69.98 69.98 0.0 0 0 256.00 126.01
  A 69.98 69.98 0.0 0 0 186.02 195.99
  A 69.98 69.98 0.0 0 0 256.00 265.97
  A 69.98 69.98 0.0 0 0 325.98 195.99
  Z"
>
</svg>
