<?xml version="1.0" encoding="UTF-8" standalone="no"?>
<!DOCTYPE svg PUBLIC "-//W3C//DTD SVG 1.1//EN" "http://www.w3.org/Graphics/SVG/1.1/DTD/svg11.dtd">
<svg xmlns="http://www.w3.org/2000/svg" version="1.1" viewBox="0.00 0.00 500.00 499.00">
<g stroke-width="2.00" fill="none" stroke-linecap="butt">
<path stroke="#e6e6e6" vector-effect="non-scaling-stroke" d="
  M 366.13 499.00
  L 416.39 498.49
  Q 416.95 498.48 416.95 497.92
  C 417.11 460.55 412.26 422.65 397.48 388.24
  C 381.62 351.31 350.58 319.63 309.56 313.06
  Q 307.54 312.74 305.53 313.49
  C 269.45 326.86 227.11 331.64 191.27 313.71
  C 189.15 312.65 187.96 312.94 185.76 313.19
  Q 160.97 316.04 141.35 331.35
  C 116.91 350.41 102.38 377.49 94.29 407.03
  Q 89.75 423.62 88.69 430.75
  C 87.62 438.00 86.18 445.50 85.50 452.46
  Q 83.23 475.67 83.07 499.00"
/>
<path stroke="#e6e6e6" vector-effect="non-scaling-stroke" d="
  M 362.0216 191.2520
  A 112.79 112.68 -0.7 0 0 247.8634 79.9584
  A 112.79 112.68 -0.7 0 0 136.4584 194.0080
  A 112.79 112.68 -0.7 0 0 250.6166 305.3016
  A 112.79 112.68 -0.7 0 0 362.0216 191.2520"
/>
</g>
<path fill="#ffffff" d="
  M 0.00 0.00
  L 500.00 0.00
  L 500.00 499.00
  L 366.13 499.00
  L 416.39 498.49
  Q 416.95 498.48 416.95 497.92
  C 417.11 460.55 412.26 422.65 397.48 388.24
  C 381.62 351.31 350.58 319.63 309.56 313.06
  Q 307.54 312.74 305.53 313.49
  C 269.45 326.86 227.11 331.64 191.27 313.71
  C 189.15 312.65 187.96 312.94 185.76 313.19
  Q 160.97 316.04 141.35 331.35
  C 116.91 350.41 102.38 377.49 94.29 407.03
  Q 89.75 423.62 88.69 430.75
  C 87.62 438.00 86.18 445.50 85.50 452.46
  Q 83.23 475.67 83.07 499.00
  L 0.00 499.00
  L 0.00 0.00
  Z
  M 362.0216 191.2520
  A 112.79 112.68 -0.7 0 0 247.8634 79.9584
  A 112.79 112.68 -0.7 0 0 136.4584 194.0080
  A 112.79 112.68 -0.7 0 0 250.6166 305.3016
  A 112.79 112.68 -0.7 0 0 362.0216 191.2520
  Z"
/>
<ellipse fill="#cccccc" cx="0.00" cy="0.00" transform="translate(249.24,192.63) rotate(-0.7)" rx="112.79" ry="112.68"/>
<path fill="#cccccc" d="
  M 366.13 499.00
  L 83.07 499.00
  Q 83.23 475.67 85.50 452.46
  C 86.18 445.50 87.62 438.00 88.69 430.75
  Q 89.75 423.62 94.29 407.03
  C 102.38 377.49 116.91 350.41 141.35 331.35
  Q 160.97 316.04 185.76 313.19
  C 187.96 312.94 189.15 312.65 191.27 313.71
  C 227.11 331.64 269.45 326.86 305.53 313.49
  Q 307.54 312.74 309.56 313.06
  C 350.58 319.63 381.62 351.31 397.48 388.24
  C 412.26 422.65 417.11 460.55 416.95 497.92
  Q 416.95 498.48 416.39 498.49
  L 366.13 499.00
  Z"
/>
</svg>
